<svg id="svg" version="1.1" xmlns="http://www.w3.org/2000/svg" xmlns:xlink="http://www.w3.org/1999/xlink" width="400" height="419.04761904761904" viewBox="0, 0, 400,419.04761904761904"><g id="svgg"><path id="path0" d="M152.200 20.466 C 64.633 27.521,0.715 106.171,11.821 193.200 C 25.979 304.143,151.883 362.773,246.600 302.531 L 251.800 299.223 299.000 346.359 C 346.133 393.428,348.021 395.225,352.054 396.830 C 374.347 405.700,395.839 385.946,388.363 363.457 C 386.423 357.622,387.582 358.865,337.221 308.585 C 311.249 282.655,290.000 261.289,290.000 261.105 C 290.000 260.920,291.054 259.201,292.342 257.285 C 310.004 231.010,319.415 195.976,317.239 164.600 C 315.059 133.162,305.086 106.100,286.571 81.384 C 265.244 52.914,232.029 31.263,198.555 24.011 C 196.421 23.548,194.564 23.102,194.429 23.018 C 191.439 21.170,164.028 19.513,152.200 20.466 M178.000 74.800 C 211.283 79.694,240.399 100.780,253.668 129.600 C 254.022 130.370,254.771 131.990,255.332 133.200 C 273.646 172.700,261.120 223.906,226.440 251.305 C 169.221 296.512,84.004 267.587,67.178 197.247 C 50.690 128.324,108.395 64.566,178.000 74.800 " stroke="none" fill="#040404" fill-rule="evenodd"></path><path id="path1" d="M0.000 209.400 L 0.000 418.800 200.000 418.800 L 400.000 418.800 400.000 209.400 L 400.000 0.000 200.000 0.000 L 0.000 0.000 0.000 209.400 M181.948 20.575 C 187.343 21.208,199.336 23.460,203.531 24.627 C 207.037 25.602,218.151 29.271,218.600 29.601 C 218.820 29.763,219.698 30.121,220.550 30.395 C 241.711 37.217,270.474 59.096,286.646 80.675 C 293.497 89.815,297.404 96.138,302.175 105.800 C 325.983 154.017,322.633 211.587,293.400 256.613 L 290.489 261.097 334.671 305.248 C 390.861 361.399,384.860 355.216,387.125 359.292 C 398.583 379.918,379.081 404.585,356.015 398.643 C 348.196 396.628,351.615 399.715,299.200 347.359 C 273.350 321.538,252.065 300.289,251.900 300.139 C 251.735 299.989,250.655 300.499,249.500 301.271 C 206.450 330.057,153.784 335.181,104.600 315.369 C 78.411 304.819,51.988 282.929,35.834 258.400 C 34.313 256.090,32.768 253.750,32.400 253.200 C 29.498 248.852,23.130 235.994,20.529 229.229 C -2.680 168.858,13.424 102.027,61.600 58.788 C 72.612 48.904,85.317 40.504,99.432 33.775 C 102.989 32.079,106.526 30.637,112.709 28.362 C 117.628 26.553,128.506 23.522,132.783 22.769 C 135.322 22.322,138.120 21.799,139.000 21.606 C 140.751 21.223,150.097 20.099,153.600 19.850 C 158.453 19.505,176.843 19.975,181.948 20.575 M153.400 74.816 C 139.813 75.955,122.258 82.104,110.200 89.949 C 45.622 131.963,51.138 228.462,120.055 262.348 C 183.601 293.594,258.879 250.044,262.917 179.699 C 264.989 143.604,247.125 107.752,218.400 90.356 C 217.190 89.623,215.641 88.648,214.958 88.189 C 200.303 78.341,175.537 72.960,153.400 74.816 " stroke="none" fill="#f3f3f3" fill-rule="evenodd"></path><path id="path2" d="M157.100 19.893 C 158.035 19.977,159.565 19.977,160.500 19.893 C 161.435 19.809,160.670 19.740,158.800 19.740 C 156.930 19.740,156.165 19.809,157.100 19.893 M168.291 19.889 C 169.001 19.977,170.261 19.979,171.091 19.892 C 171.921 19.805,171.340 19.733,169.800 19.731 C 168.260 19.729,167.581 19.800,168.291 19.889 M98.700 34.027 C 97.875 34.463,97.200 34.908,97.200 35.018 C 97.200 35.196,100.359 33.719,100.767 33.351 C 101.227 32.934,100.025 33.328,98.700 34.027 M229.200 34.400 C 229.970 34.822,230.780 35.166,231.000 35.166 C 231.220 35.166,230.770 34.822,230.000 34.400 C 229.230 33.978,228.420 33.634,228.200 33.634 C 227.980 33.634,228.430 33.978,229.200 34.400 M234.000 36.584 C 234.000 36.694,234.720 37.151,235.600 37.600 C 236.480 38.049,237.200 38.326,237.200 38.216 C 237.200 38.106,236.480 37.649,235.600 37.200 C 234.720 36.751,234.000 36.474,234.000 36.584 M242.600 41.407 C 243.040 41.766,243.760 42.235,244.200 42.451 L 245.000 42.844 244.200 42.193 C 243.760 41.834,243.040 41.365,242.600 41.149 L 241.800 40.756 242.600 41.407 M246.000 43.346 C 246.000 43.456,246.540 43.930,247.200 44.400 C 247.860 44.870,248.400 45.164,248.400 45.054 C 248.400 44.944,247.860 44.470,247.200 44.000 C 246.540 43.530,246.000 43.236,246.000 43.346 M74.200 48.635 L 73.000 49.666 74.300 48.806 C 75.015 48.333,75.600 47.868,75.600 47.773 C 75.600 47.473,75.431 47.578,74.200 48.635 M64.175 56.500 L 63.000 57.800 64.300 56.625 C 65.512 55.530,65.784 55.200,65.475 55.200 C 65.406 55.200,64.821 55.785,64.175 56.500 M266.783 59.300 C 267.764 60.345,268.619 61.200,268.683 61.200 C 268.984 61.200,268.666 60.841,266.900 59.183 L 265.000 57.400 266.783 59.300 M60.000 60.200 C 59.028 61.190,58.323 62.000,58.433 62.000 C 58.543 62.000,59.428 61.190,60.400 60.200 C 61.372 59.210,62.077 58.400,61.967 58.400 C 61.857 58.400,60.972 59.210,60.000 60.200 M55.775 64.100 L 54.600 65.400 55.900 64.225 C 57.112 63.130,57.384 62.800,57.075 62.800 C 57.006 62.800,56.421 63.385,55.775 64.100 M50.400 69.800 C 49.428 70.790,48.723 71.600,48.833 71.600 C 48.943 71.600,49.828 70.790,50.800 69.800 C 51.772 68.810,52.477 68.000,52.367 68.000 C 52.257 68.000,51.372 68.810,50.400 69.800 M277.600 70.200 C 278.346 70.970,279.047 71.600,279.157 71.600 C 279.267 71.600,278.746 70.970,278.000 70.200 C 277.254 69.430,276.553 68.800,276.443 68.800 C 276.333 68.800,276.854 69.430,277.600 70.200 M46.778 73.900 L 45.400 75.400 46.900 74.022 C 47.725 73.263,48.400 72.588,48.400 72.522 C 48.400 72.216,48.062 72.504,46.778 73.900 M279.600 72.525 C 279.600 72.594,280.185 73.179,280.900 73.825 L 282.200 75.000 281.025 73.700 C 279.930 72.488,279.600 72.216,279.600 72.525 M161.700 74.297 C 163.185 74.374,165.615 74.374,167.100 74.297 C 168.585 74.220,167.370 74.157,164.400 74.157 C 161.430 74.157,160.215 74.220,161.700 74.297 M154.300 74.682 C 154.795 74.778,155.605 74.778,156.100 74.682 C 156.595 74.587,156.190 74.509,155.200 74.509 C 154.210 74.509,153.805 74.587,154.300 74.682 M172.305 74.683 C 172.802 74.779,173.522 74.775,173.905 74.675 C 174.287 74.575,173.880 74.496,173.000 74.501 C 172.120 74.505,171.807 74.587,172.305 74.683 M127.200 81.000 C 126.650 81.314,126.380 81.572,126.600 81.572 C 126.820 81.572,127.450 81.314,128.000 81.000 C 128.550 80.686,128.820 80.428,128.600 80.428 C 128.380 80.428,127.750 80.686,127.200 81.000 M200.000 81.000 C 200.550 81.314,201.180 81.572,201.400 81.572 C 201.620 81.572,201.350 81.314,200.800 81.000 C 200.250 80.686,199.620 80.428,199.400 80.428 C 199.180 80.428,199.450 80.686,200.000 81.000 M205.200 83.200 C 205.970 83.622,206.780 83.966,207.000 83.966 C 207.220 83.966,206.770 83.622,206.000 83.200 C 205.230 82.778,204.420 82.434,204.200 82.434 C 203.980 82.434,204.430 82.778,205.200 83.200 M38.800 84.000 C 38.330 84.660,38.036 85.200,38.146 85.200 C 38.256 85.200,38.730 84.660,39.200 84.000 C 39.670 83.340,39.964 82.800,39.854 82.800 C 39.744 82.800,39.270 83.340,38.800 84.000 M210.800 85.779 C 210.800 85.889,211.340 86.259,212.000 86.600 C 212.660 86.941,213.200 87.131,213.200 87.021 C 213.200 86.911,212.660 86.541,212.000 86.200 C 211.340 85.859,210.800 85.669,210.800 85.779 M290.800 86.800 C 291.270 87.460,291.744 88.000,291.854 88.000 C 291.964 88.000,291.670 87.460,291.200 86.800 C 290.730 86.140,290.256 85.600,290.146 85.600 C 290.036 85.600,290.330 86.140,290.800 86.800 M292.609 89.426 C 292.981 90.101,293.641 91.091,294.076 91.626 L 294.867 92.600 294.191 91.374 C 293.819 90.699,293.159 89.709,292.724 89.174 L 291.933 88.200 292.609 89.426 M104.000 94.049 C 102.606 95.271,102.605 95.272,103.888 94.419 C 104.596 93.948,105.282 93.391,105.412 93.181 C 105.797 92.557,105.477 92.754,104.000 94.049 M222.400 92.946 C 222.400 93.056,222.940 93.530,223.600 94.000 C 224.260 94.470,224.800 94.764,224.800 94.654 C 224.800 94.544,224.260 94.070,223.600 93.600 C 222.940 93.130,222.400 92.836,222.400 92.946 M297.800 98.000 C 298.141 98.660,298.511 99.200,298.621 99.200 C 298.731 99.200,298.541 98.660,298.200 98.000 C 297.859 97.340,297.489 96.800,297.379 96.800 C 297.269 96.800,297.459 97.340,297.800 98.000 M29.400 98.800 C 29.059 99.460,28.869 100.000,28.979 100.000 C 29.089 100.000,29.459 99.460,29.800 98.800 C 30.141 98.140,30.331 97.600,30.221 97.600 C 30.111 97.600,29.741 98.140,29.400 98.800 M93.392 103.300 L 89.800 107.000 93.500 103.408 C 96.936 100.072,97.382 99.600,97.092 99.600 C 97.032 99.600,95.367 101.265,93.392 103.300 M234.000 103.000 C 235.860 104.870,237.472 106.400,237.582 106.400 C 237.692 106.400,236.260 104.870,234.400 103.000 C 232.540 101.130,230.928 99.600,230.818 99.600 C 230.708 99.600,232.140 101.130,234.000 103.000 M300.200 102.400 C 300.541 103.060,300.911 103.600,301.021 103.600 C 301.131 103.600,300.941 103.060,300.600 102.400 C 300.259 101.740,299.889 101.200,299.779 101.200 C 299.669 101.200,299.859 101.740,300.200 102.400 M26.200 104.800 C 25.859 105.460,25.669 106.000,25.779 106.000 C 25.889 106.000,26.259 105.460,26.600 104.800 C 26.941 104.140,27.131 103.600,27.021 103.600 C 26.911 103.600,26.541 104.140,26.200 104.800 M304.828 111.800 C 304.828 112.020,305.086 112.650,305.400 113.200 C 305.714 113.750,305.972 114.020,305.972 113.800 C 305.972 113.580,305.714 112.950,305.400 112.400 C 305.086 111.850,304.828 111.580,304.828 111.800 M84.175 113.868 C 83.559 114.676,83.259 115.211,83.509 115.056 C 84.021 114.740,85.753 112.400,85.475 112.400 C 85.376 112.400,84.791 113.061,84.175 113.868 M251.400 126.400 C 251.741 127.060,252.111 127.600,252.221 127.600 C 252.331 127.600,252.141 127.060,251.800 126.400 C 251.459 125.740,251.089 125.200,250.979 125.200 C 250.869 125.200,251.059 125.740,251.400 126.400 M310.063 125.400 C 310.062 125.620,310.303 126.430,310.600 127.200 C 310.897 127.970,311.145 128.330,311.152 128.000 C 311.158 127.670,310.917 126.860,310.614 126.200 C 310.312 125.540,310.064 125.180,310.063 125.400 M253.234 129.800 C 253.234 130.020,253.578 130.830,254.000 131.600 C 254.422 132.370,254.766 132.820,254.766 132.600 C 254.766 132.380,254.422 131.570,254.000 130.800 C 253.578 130.030,253.234 129.580,253.234 129.800 M73.265 132.217 C 72.595 133.688,72.723 134.002,73.447 132.665 C 73.786 132.040,73.988 131.454,73.896 131.363 C 73.805 131.271,73.521 131.656,73.265 132.217 M70.444 139.244 C 70.198 139.951,70.066 140.600,70.152 140.685 C 70.238 140.771,70.509 140.262,70.756 139.556 C 71.002 138.849,71.134 138.200,71.048 138.115 C 70.962 138.029,70.691 138.538,70.444 139.244 M10.509 161.200 C 10.509 162.190,10.587 162.595,10.682 162.100 C 10.778 161.605,10.778 160.795,10.682 160.300 C 10.587 159.805,10.509 160.210,10.509 161.200 M317.309 161.200 C 317.309 162.190,317.387 162.595,317.482 162.100 C 317.578 161.605,317.578 160.795,317.482 160.300 C 317.387 159.805,317.309 160.210,317.309 161.200 M65.301 161.400 C 65.305 162.280,65.387 162.593,65.483 162.095 C 65.579 161.598,65.575 160.878,65.475 160.495 C 65.375 160.113,65.296 160.520,65.301 161.400 M262.909 165.200 C 262.909 166.190,262.987 166.595,263.082 166.100 C 263.178 165.605,263.178 164.795,263.082 164.300 C 262.987 163.805,262.909 164.210,262.909 165.200 M64.909 165.600 C 64.909 166.590,64.987 166.995,65.082 166.500 C 65.178 166.005,65.178 165.195,65.082 164.700 C 64.987 164.205,64.909 164.610,64.909 165.600 M10.167 173.600 C 10.167 177.890,10.226 179.645,10.298 177.500 C 10.370 175.355,10.370 171.845,10.298 169.700 C 10.226 167.555,10.167 169.310,10.167 173.600 M317.766 173.600 C 317.766 177.670,317.825 179.335,317.898 177.300 C 317.971 175.265,317.971 171.935,317.898 169.900 C 317.825 167.865,317.766 169.530,317.766 173.600 M64.524 173.800 C 64.526 175.120,64.601 175.612,64.690 174.893 C 64.779 174.174,64.777 173.094,64.686 172.493 C 64.595 171.892,64.522 172.480,64.524 173.800 M262.924 181.000 C 262.926 182.320,263.001 182.812,263.090 182.093 C 263.179 181.374,263.177 180.294,263.086 179.693 C 262.995 179.092,262.922 179.680,262.924 181.000 M64.893 182.000 C 64.893 182.770,64.975 183.085,65.076 182.700 C 65.176 182.315,65.176 181.685,65.076 181.300 C 64.975 180.915,64.893 181.230,64.893 182.000 M65.301 185.400 C 65.305 186.280,65.387 186.593,65.483 186.095 C 65.579 185.598,65.575 184.878,65.475 184.495 C 65.375 184.113,65.296 184.520,65.301 185.400 M317.301 185.400 C 317.305 186.280,317.387 186.593,317.483 186.095 C 317.579 185.598,317.575 184.878,317.475 184.495 C 317.375 184.113,317.296 184.520,317.301 185.400 M10.493 185.600 C 10.493 186.370,10.575 186.685,10.676 186.300 C 10.776 185.915,10.776 185.285,10.676 184.900 C 10.575 184.515,10.493 184.830,10.493 185.600 M10.893 190.000 C 10.893 190.770,10.975 191.085,11.076 190.700 C 11.176 190.315,11.176 189.685,11.076 189.300 C 10.975 188.915,10.893 189.230,10.893 190.000 M11.293 193.600 C 11.293 194.370,11.375 194.685,11.476 194.300 C 11.576 193.915,11.576 193.285,11.476 192.900 C 11.375 192.515,11.293 192.830,11.293 193.600 M73.228 214.200 C 73.228 214.420,73.486 215.050,73.800 215.600 C 74.114 216.150,74.372 216.420,74.372 216.200 C 74.372 215.980,74.114 215.350,73.800 214.800 C 73.486 214.250,73.228 213.980,73.228 214.200 M310.629 219.429 C 310.481 220.015,310.438 220.572,310.532 220.666 C 310.627 220.760,310.824 220.358,310.971 219.771 C 311.119 219.185,311.162 218.628,311.068 218.534 C 310.973 218.440,310.776 218.842,310.629 219.429 M251.200 220.800 C 250.751 221.680,250.474 222.400,250.584 222.400 C 250.694 222.400,251.151 221.680,251.600 220.800 C 252.049 219.920,252.326 219.200,252.216 219.200 C 252.106 219.200,251.649 219.920,251.200 220.800 M80.349 227.400 C 80.565 227.840,81.034 228.560,81.393 229.000 L 82.044 229.800 81.651 229.000 C 81.435 228.560,80.966 227.840,80.607 227.400 L 79.956 226.600 80.349 227.400 M246.000 229.400 C 245.319 230.390,244.852 231.200,244.962 231.200 C 245.072 231.200,245.719 230.390,246.400 229.400 C 247.081 228.410,247.548 227.600,247.438 227.600 C 247.328 227.600,246.681 228.410,246.000 229.400 M243.375 233.068 C 242.759 233.876,242.459 234.411,242.709 234.256 C 243.221 233.940,244.953 231.600,244.675 231.600 C 244.576 231.600,243.991 232.261,243.375 233.068 M303.078 238.605 C 302.712 239.372,302.495 240.000,302.596 240.000 C 302.870 240.000,304.084 237.551,303.901 237.368 C 303.814 237.281,303.444 237.838,303.078 238.605 M233.993 243.900 L 229.400 248.600 234.100 244.007 C 238.466 239.740,238.982 239.200,238.693 239.200 C 238.635 239.200,236.520 241.315,233.993 243.900 M93.800 244.000 C 96.212 246.420,98.276 248.400,98.386 248.400 C 98.496 248.400,96.612 246.420,94.200 244.000 C 91.788 241.580,89.724 239.600,89.614 239.600 C 89.504 239.600,91.388 241.580,93.800 244.000 M300.600 243.600 C 300.259 244.260,300.069 244.800,300.179 244.800 C 300.289 244.800,300.659 244.260,301.000 243.600 C 301.341 242.940,301.531 242.400,301.421 242.400 C 301.311 242.400,300.941 242.940,300.600 243.600 M28.200 246.000 C 28.541 246.660,28.911 247.200,29.021 247.200 C 29.131 247.200,28.941 246.660,28.600 246.000 C 28.259 245.340,27.889 244.800,27.779 244.800 C 27.669 244.800,27.859 245.340,28.200 246.000 M227.200 250.054 L 225.400 251.685 227.094 250.413 C 228.568 249.307,229.514 248.374,229.124 248.412 C 229.056 248.419,228.190 249.158,227.200 250.054 M220.600 255.035 L 219.400 256.066 220.700 255.206 C 221.415 254.733,222.000 254.268,222.000 254.173 C 222.000 253.873,221.831 253.978,220.600 255.035 M33.549 255.000 C 33.765 255.440,34.234 256.160,34.593 256.600 L 35.244 257.400 34.851 256.600 C 34.635 256.160,34.166 255.440,33.807 255.000 L 33.156 254.200 33.549 255.000 M292.400 263.400 C 293.595 264.610,294.663 265.600,294.773 265.600 C 294.883 265.600,293.995 264.610,292.800 263.400 C 291.605 262.190,290.537 261.200,290.427 261.200 C 290.317 261.200,291.205 262.190,292.400 263.400 M38.364 262.333 C 38.580 262.736,39.071 263.321,39.455 263.633 C 39.887 263.984,39.790 263.704,39.201 262.900 C 38.151 261.465,37.757 261.198,38.364 262.333 M124.000 264.600 C 124.550 264.914,125.180 265.172,125.400 265.172 C 125.620 265.172,125.350 264.914,124.800 264.600 C 124.250 264.286,123.620 264.028,123.400 264.028 C 123.180 264.028,123.450 264.286,124.000 264.600 M334.200 305.200 C 355.759 326.760,373.488 344.400,373.598 344.400 C 373.708 344.400,356.159 326.760,334.600 305.200 C 313.041 283.640,295.312 266.000,295.202 266.000 C 295.092 266.000,312.641 283.640,334.200 305.200 M130.800 267.133 C 131.130 267.336,131.850 267.624,132.400 267.771 C 133.095 267.957,133.217 267.925,132.800 267.667 C 132.470 267.464,131.750 267.176,131.200 267.029 C 130.505 266.843,130.383 266.875,130.800 267.133 M188.000 269.600 C 187.196 269.857,187.157 269.923,187.800 269.932 C 188.240 269.938,188.960 269.789,189.400 269.600 C 190.419 269.162,189.368 269.162,188.000 269.600 M153.300 272.276 C 153.685 272.376,154.315 272.376,154.700 272.276 C 155.085 272.175,154.770 272.093,154.000 272.093 C 153.230 272.093,152.915 272.175,153.300 272.276 M173.300 272.276 C 173.685 272.376,174.315 272.376,174.700 272.276 C 175.085 272.175,174.770 272.093,174.000 272.093 C 173.230 272.093,172.915 272.175,173.300 272.276 M160.100 272.698 C 162.025 272.771,165.175 272.771,167.100 272.698 C 169.025 272.625,167.450 272.565,163.600 272.565 C 159.750 272.565,158.175 272.625,160.100 272.698 M49.183 275.700 C 50.164 276.745,51.019 277.600,51.083 277.600 C 51.384 277.600,51.066 277.241,49.300 275.583 L 47.400 273.800 49.183 275.700 M52.800 279.710 C 52.800 279.771,54.195 281.166,55.900 282.810 L 59.000 285.800 56.010 282.700 C 53.233 279.821,52.800 279.417,52.800 279.710 M60.400 287.000 C 61.146 287.770,61.847 288.400,61.957 288.400 C 62.067 288.400,61.546 287.770,60.800 287.000 C 60.054 286.230,59.353 285.600,59.243 285.600 C 59.133 285.600,59.654 286.230,60.400 287.000 M258.400 306.600 C 259.146 307.370,259.847 308.000,259.957 308.000 C 260.067 308.000,259.546 307.370,258.800 306.600 C 258.054 305.830,257.353 305.200,257.243 305.200 C 257.133 305.200,257.654 305.830,258.400 306.600 M262.600 310.800 C 263.906 312.120,265.065 313.200,265.175 313.200 C 265.285 313.200,264.306 312.120,263.000 310.800 C 261.694 309.480,260.535 308.400,260.425 308.400 C 260.315 308.400,261.294 309.480,262.600 310.800 M269.800 318.000 C 271.106 319.320,272.265 320.400,272.375 320.400 C 272.485 320.400,271.506 319.320,270.200 318.000 C 268.894 316.680,267.735 315.600,267.625 315.600 C 267.515 315.600,268.494 316.680,269.800 318.000 M274.000 322.200 C 274.746 322.970,275.447 323.600,275.557 323.600 C 275.667 323.600,275.146 322.970,274.400 322.200 C 273.654 321.430,272.953 320.800,272.843 320.800 C 272.733 320.800,273.254 321.430,274.000 322.200 M280.400 328.600 C 282.923 331.130,285.077 333.200,285.187 333.200 C 285.297 333.200,283.323 331.130,280.800 328.600 C 278.277 326.070,276.123 324.000,276.013 324.000 C 275.903 324.000,277.877 326.070,280.400 328.600 M149.100 326.682 C 149.595 326.778,150.405 326.778,150.900 326.682 C 151.395 326.587,150.990 326.509,150.000 326.509 C 149.010 326.509,148.605 326.587,149.100 326.682 M176.705 326.683 C 177.202 326.779,177.922 326.775,178.305 326.675 C 178.687 326.575,178.280 326.496,177.400 326.501 C 176.520 326.505,176.207 326.587,176.705 326.683 M154.691 327.089 C 155.401 327.177,156.661 327.179,157.491 327.092 C 158.321 327.005,157.740 326.933,156.200 326.931 C 154.660 326.929,153.981 327.000,154.691 327.089 M171.300 327.087 C 171.905 327.178,172.895 327.178,173.500 327.087 C 174.105 326.995,173.610 326.920,172.400 326.920 C 171.190 326.920,170.695 326.995,171.300 327.087 M316.000 364.200 C 331.729 379.930,344.688 392.800,344.798 392.800 C 344.908 392.800,332.129 379.930,316.400 364.200 C 300.671 348.470,287.712 335.600,287.602 335.600 C 287.492 335.600,300.271 348.470,316.000 364.200 M376.000 347.000 C 377.195 348.210,378.263 349.200,378.373 349.200 C 378.483 349.200,377.595 348.210,376.400 347.000 C 375.205 345.790,374.137 344.800,374.027 344.800 C 373.917 344.800,374.805 345.790,376.000 347.000 M382.000 353.000 C 383.417 354.430,384.667 355.600,384.777 355.600 C 384.887 355.600,383.817 354.430,382.400 353.000 C 380.983 351.570,379.733 350.400,379.623 350.400 C 379.513 350.400,380.583 351.570,382.000 353.000 M390.140 372.400 C 390.140 374.270,390.209 375.035,390.293 374.100 C 390.377 373.165,390.377 371.635,390.293 370.700 C 390.209 369.765,390.140 370.530,390.140 372.400 M382.175 391.700 L 381.000 393.000 382.300 391.825 C 383.015 391.179,383.600 390.594,383.600 390.525 C 383.600 390.216,383.270 390.488,382.175 391.700 M346.073 393.826 C 346.443 394.252,347.343 394.941,348.073 395.357 C 349.639 396.250,349.226 395.807,347.000 394.204 C 346.069 393.534,345.682 393.376,346.073 393.826 M359.905 399.483 C 360.402 399.579,361.122 399.575,361.505 399.475 C 361.887 399.375,361.480 399.296,360.600 399.301 C 359.720 399.305,359.407 399.387,359.905 399.483 M365.105 399.483 C 365.602 399.579,366.322 399.575,366.705 399.475 C 367.087 399.375,366.680 399.296,365.800 399.301 C 364.920 399.305,364.607 399.387,365.105 399.483 " stroke="none" fill="#959595" fill-rule="evenodd"></path><path id="path3" d="M153.705 20.287 C 154.314 20.379,155.214 20.377,155.705 20.282 C 156.197 20.187,155.700 20.111,154.600 20.114 C 153.500 20.117,153.097 20.195,153.705 20.287 M172.505 20.287 C 173.114 20.379,174.014 20.377,174.505 20.282 C 174.997 20.187,174.500 20.111,173.400 20.114 C 172.300 20.117,171.897 20.195,172.505 20.287 M148.705 20.683 C 149.202 20.779,149.922 20.775,150.305 20.675 C 150.687 20.575,150.280 20.496,149.400 20.501 C 148.520 20.505,148.207 20.587,148.705 20.683 M177.505 20.683 C 178.002 20.779,178.722 20.775,179.105 20.675 C 179.487 20.575,179.080 20.496,178.200 20.501 C 177.320 20.505,177.007 20.587,177.505 20.683 M144.900 21.076 C 145.285 21.176,145.915 21.176,146.300 21.076 C 146.685 20.975,146.370 20.893,145.600 20.893 C 144.830 20.893,144.515 20.975,144.900 21.076 M181.700 21.076 C 182.085 21.176,182.715 21.176,183.100 21.076 C 183.485 20.975,183.170 20.893,182.400 20.893 C 181.630 20.893,181.315 20.975,181.700 21.076 M267.000 60.000 C 268.083 61.100,269.060 62.000,269.170 62.000 C 269.280 62.000,268.483 61.100,267.400 60.000 C 266.317 58.900,265.340 58.000,265.230 58.000 C 265.120 58.000,265.917 58.900,267.000 60.000 M60.400 60.200 C 59.428 61.190,58.723 62.000,58.833 62.000 C 58.943 62.000,59.828 61.190,60.800 60.200 C 61.772 59.210,62.477 58.400,62.367 58.400 C 62.257 58.400,61.372 59.210,60.400 60.200 M54.778 65.500 L 53.400 67.000 54.900 65.622 C 56.296 64.338,56.584 64.000,56.278 64.000 C 56.212 64.000,55.537 64.675,54.778 65.500 M273.000 65.600 C 273.859 66.480,274.652 67.200,274.762 67.200 C 274.872 67.200,274.259 66.480,273.400 65.600 C 272.541 64.720,271.748 64.000,271.638 64.000 C 271.528 64.000,272.141 64.720,273.000 65.600 M50.378 70.300 L 49.000 71.800 50.500 70.422 C 51.896 69.138,52.184 68.800,51.878 68.800 C 51.812 68.800,51.137 69.475,50.378 70.300 M277.400 70.400 C 278.259 71.280,279.052 72.000,279.162 72.000 C 279.272 72.000,278.659 71.280,277.800 70.400 C 276.941 69.520,276.148 68.800,276.038 68.800 C 275.928 68.800,276.541 69.520,277.400 70.400 M162.300 73.895 C 163.455 73.976,165.345 73.976,166.500 73.895 C 167.655 73.814,166.710 73.748,164.400 73.748 C 162.090 73.748,161.145 73.814,162.300 73.895 M155.100 74.282 C 155.595 74.378,156.405 74.378,156.900 74.282 C 157.395 74.187,156.990 74.109,156.000 74.109 C 155.010 74.109,154.605 74.187,155.100 74.282 M171.505 74.283 C 172.002 74.379,172.722 74.375,173.105 74.275 C 173.487 74.175,173.080 74.096,172.200 74.101 C 171.320 74.105,171.007 74.187,171.505 74.283 M124.400 81.800 C 123.850 82.114,123.580 82.372,123.800 82.372 C 124.020 82.372,124.650 82.114,125.200 81.800 C 125.750 81.486,126.020 81.228,125.800 81.228 C 125.580 81.228,124.950 81.486,124.400 81.800 M93.392 102.900 L 89.800 106.600 93.500 103.008 C 96.936 99.672,97.382 99.200,97.092 99.200 C 97.032 99.200,95.367 100.865,93.392 102.900 M234.600 103.200 C 236.792 105.400,238.675 107.200,238.785 107.200 C 238.895 107.200,237.192 105.400,235.000 103.200 C 232.808 101.000,230.925 99.200,230.815 99.200 C 230.705 99.200,232.408 101.000,234.600 103.200 M88.175 108.500 L 87.000 109.800 88.300 108.625 C 89.015 107.979,89.600 107.394,89.600 107.325 C 89.600 107.016,89.270 107.288,88.175 108.500 M316.493 155.600 C 316.493 156.370,316.575 156.685,316.676 156.300 C 316.776 155.915,316.776 155.285,316.676 154.900 C 316.575 154.515,316.493 154.830,316.493 155.600 M316.901 159.800 C 316.905 160.680,316.987 160.993,317.083 160.495 C 317.179 159.998,317.175 159.278,317.075 158.895 C 316.975 158.513,316.896 158.920,316.901 159.800 M10.901 160.200 C 10.905 161.080,10.987 161.393,11.083 160.895 C 11.179 160.398,11.175 159.678,11.075 159.295 C 10.975 158.913,10.896 159.320,10.901 160.200 M10.528 166.400 C 10.528 167.830,10.601 168.415,10.689 167.700 C 10.778 166.985,10.778 165.815,10.689 165.100 C 10.601 164.385,10.528 164.970,10.528 166.400 M317.309 165.600 C 317.309 166.590,317.387 166.995,317.482 166.500 C 317.578 166.005,317.578 165.195,317.482 164.700 C 317.387 164.205,317.309 164.610,317.309 165.600 M263.314 166.600 C 263.317 167.700,263.395 168.103,263.487 167.495 C 263.579 166.886,263.577 165.986,263.482 165.495 C 263.387 165.003,263.311 165.500,263.314 166.600 M64.520 168.000 C 64.520 169.210,64.595 169.705,64.687 169.100 C 64.778 168.495,64.778 167.505,64.687 166.900 C 64.595 166.295,64.520 166.790,64.520 168.000 M263.324 179.800 C 263.326 181.120,263.401 181.612,263.490 180.893 C 263.579 180.174,263.577 179.094,263.486 178.493 C 263.395 177.892,263.322 178.480,263.324 179.800 M64.509 179.600 C 64.509 180.590,64.587 180.995,64.682 180.500 C 64.778 180.005,64.778 179.195,64.682 178.700 C 64.587 178.205,64.509 178.610,64.509 179.600 M10.520 180.800 C 10.520 182.010,10.595 182.505,10.687 181.900 C 10.778 181.295,10.778 180.305,10.687 179.700 C 10.595 179.095,10.520 179.590,10.520 180.800 M317.309 181.600 C 317.309 182.590,317.387 182.995,317.482 182.500 C 317.578 182.005,317.578 181.195,317.482 180.700 C 317.387 180.205,317.309 180.610,317.309 181.600 M10.893 186.400 C 10.893 187.170,10.975 187.485,11.076 187.100 C 11.176 186.715,11.176 186.085,11.076 185.700 C 10.975 185.315,10.893 185.630,10.893 186.400 M316.901 187.000 C 316.905 187.880,316.987 188.193,317.083 187.695 C 317.179 187.198,317.175 186.478,317.075 186.095 C 316.975 185.713,316.896 186.120,316.901 187.000 M316.493 191.200 C 316.493 191.970,316.575 192.285,316.676 191.900 C 316.776 191.515,316.776 190.885,316.676 190.500 C 316.575 190.115,316.493 190.430,316.493 191.200 M234.393 243.900 L 230.200 248.200 234.500 244.007 C 236.865 241.701,238.800 239.766,238.800 239.707 C 238.800 239.418,238.287 239.906,234.393 243.900 M93.200 243.800 C 95.281 245.890,97.074 247.600,97.184 247.600 C 97.294 247.600,95.681 245.890,93.600 243.800 C 91.519 241.710,89.726 240.000,89.616 240.000 C 89.506 240.000,91.119 241.710,93.200 243.800 M290.129 260.641 C 289.950 261.108,296.996 268.369,316.041 287.341 L 342.199 313.400 316.241 287.341 C 297.383 268.409,290.351 261.106,290.529 260.641 C 290.664 260.288,290.685 260.000,290.575 260.000 C 290.465 260.000,290.264 260.288,290.129 260.641 M122.400 264.200 C 122.950 264.514,123.580 264.772,123.800 264.772 C 124.020 264.772,123.750 264.514,123.200 264.200 C 122.650 263.886,122.020 263.628,121.800 263.628 C 121.580 263.628,121.850 263.886,122.400 264.200 M154.100 272.676 C 154.485 272.776,155.115 272.776,155.500 272.676 C 155.885 272.575,155.570 272.493,154.800 272.493 C 154.030 272.493,153.715 272.575,154.100 272.676 M172.500 272.676 C 172.885 272.776,173.515 272.776,173.900 272.676 C 174.285 272.575,173.970 272.493,173.200 272.493 C 172.430 272.493,172.115 272.575,172.500 272.676 M161.913 273.095 C 163.076 273.176,164.876 273.176,165.913 273.093 C 166.951 273.011,166.000 272.945,163.800 272.946 C 161.600 272.947,160.751 273.014,161.913 273.095 M49.800 276.000 C 50.659 276.880,51.452 277.600,51.562 277.600 C 51.672 277.600,51.059 276.880,50.200 276.000 C 49.341 275.120,48.548 274.400,48.438 274.400 C 48.328 274.400,48.941 275.120,49.800 276.000 M52.800 279.310 C 52.800 279.371,54.195 280.766,55.900 282.410 L 59.000 285.400 56.010 282.300 C 53.233 279.421,52.800 279.017,52.800 279.310 M60.400 286.525 C 60.400 286.594,60.985 287.179,61.700 287.825 L 63.000 289.000 61.825 287.700 C 60.730 286.488,60.400 286.216,60.400 286.525 M254.000 301.725 C 254.000 301.794,254.585 302.379,255.300 303.025 L 256.600 304.200 255.425 302.900 C 254.330 301.688,254.000 301.416,254.000 301.725 M260.200 308.000 C 261.059 308.880,261.852 309.600,261.962 309.600 C 262.072 309.600,261.459 308.880,260.600 308.000 C 259.741 307.120,258.948 306.400,258.838 306.400 C 258.728 306.400,259.341 307.120,260.200 308.000 M264.000 311.725 C 264.000 311.794,264.585 312.379,265.300 313.025 L 266.600 314.200 265.425 312.900 C 264.330 311.688,264.000 311.416,264.000 311.725 M347.000 318.400 C 349.633 321.040,351.877 323.200,351.987 323.200 C 352.097 323.200,350.033 321.040,347.400 318.400 C 344.767 315.760,342.523 313.600,342.413 313.600 C 342.303 313.600,344.367 315.760,347.000 318.400 M266.800 314.525 C 266.800 314.594,267.385 315.179,268.100 315.825 L 269.400 317.000 268.225 315.700 C 267.130 314.488,266.800 314.216,266.800 314.525 M272.800 320.600 C 274.660 322.470,276.272 324.000,276.382 324.000 C 276.492 324.000,275.060 322.470,273.200 320.600 C 271.340 318.730,269.728 317.200,269.618 317.200 C 269.508 317.200,270.940 318.730,272.800 320.600 M354.600 326.000 C 355.906 327.320,357.065 328.400,357.175 328.400 C 357.285 328.400,356.306 327.320,355.000 326.000 C 353.694 324.680,352.535 323.600,352.425 323.600 C 352.315 323.600,353.294 324.680,354.600 326.000 M310.800 358.600 C 329.609 377.410,345.088 392.800,345.198 392.800 C 345.308 392.800,330.009 377.410,311.200 358.600 C 292.391 339.790,276.912 324.400,276.802 324.400 C 276.692 324.400,291.991 339.790,310.800 358.600 M153.705 326.687 C 154.314 326.779,155.214 326.777,155.705 326.682 C 156.197 326.587,155.700 326.511,154.600 326.514 C 153.500 326.517,153.097 326.595,153.705 326.687 M172.505 326.687 C 173.114 326.779,174.014 326.777,174.505 326.682 C 174.997 326.587,174.500 326.511,173.400 326.514 C 172.300 326.517,171.897 326.595,172.505 326.687 M163.511 327.093 C 164.451 327.178,165.891 327.177,166.711 327.091 C 167.530 327.005,166.760 326.936,165.000 326.937 C 163.240 326.939,162.570 327.009,163.511 327.093 M362.400 333.725 C 362.400 333.794,362.985 334.379,363.700 335.025 L 365.000 336.200 363.825 334.900 C 362.730 333.688,362.400 333.416,362.400 333.725 " stroke="none" fill="#6c6c6c" fill-rule="evenodd"></path><path id="path4" d="M163.091 19.889 C 163.801 19.977,165.061 19.979,165.891 19.892 C 166.721 19.805,166.140 19.733,164.600 19.731 C 163.060 19.729,162.381 19.800,163.091 19.889 M270.000 62.600 C 270.746 63.370,271.447 64.000,271.557 64.000 C 271.667 64.000,271.146 63.370,270.400 62.600 C 269.654 61.830,268.953 61.200,268.843 61.200 C 268.733 61.200,269.254 61.830,270.000 62.600 M263.293 169.600 C 263.293 170.370,263.375 170.685,263.476 170.300 C 263.576 169.915,263.576 169.285,263.476 168.900 C 263.375 168.515,263.293 168.830,263.293 169.600 M263.320 175.600 C 263.320 176.810,263.395 177.305,263.487 176.700 C 263.578 176.095,263.578 175.105,263.487 174.500 C 263.395 173.895,263.320 174.390,263.320 175.600 M159.500 327.082 C 159.995 327.178,160.805 327.178,161.300 327.082 C 161.795 326.987,161.390 326.909,160.400 326.909 C 159.410 326.909,159.005 326.987,159.500 327.082 M168.500 327.076 C 168.885 327.176,169.515 327.176,169.900 327.076 C 170.285 326.975,169.970 326.893,169.200 326.893 C 168.430 326.893,168.115 326.975,168.500 327.076 M362.500 399.476 C 362.885 399.576,363.515 399.576,363.900 399.476 C 364.285 399.375,363.970 399.293,363.200 399.293 C 362.430 399.293,362.115 399.375,362.500 399.476 " stroke="none" fill="#747474" fill-rule="evenodd"></path></g></svg>